<svg width="96" height="96" viewBox="0 0 96 96" xmlns="http://www.w3.org/2000/svg"><defs><linearGradient x1="50%" y1="0%" x2="50%" y2="100%" id="a"><stop stop-color="#176DEF" offset="0%"/><stop stop-color="#0A5EDD" offset="100%"/></linearGradient></defs><path d="M32.745 66.959c-8.231-.592-14.745-7.527-14.745-15.966 0-4.209 1.608-8.185 4.531-11.194 2.56-2.633 5.877-4.272 9.464-4.698.424-3.615 2.049-6.957 4.664-9.536 2.986-2.946 6.932-4.564 11.11-4.564 4.177 0 8.124 1.618 11.11 4.563 2.605 2.568 4.225 5.892 4.66 9.487 8.094.731 14.46 7.602 14.46 15.943 0 8.438-6.518 15.372-14.745 15.965l.379-3.032c6.379-.683 11.366-6.166 11.366-12.807 0-7.1-5.702-12.878-12.712-12.878h-.128c-.915 0-1.665-.738-1.686-1.667-.158-6.936-5.858-12.575-12.707-12.575-6.849 0-12.551 5.642-12.708 12.577-.021.912-.746 1.648-1.648 1.669-6.844.16-12.413 5.935-12.413 12.875 0 6.641 4.987 12.124 11.366 12.807l.379 3.031zm29.017-7.759h-13.29v3.947h9.459c-.462 5.535-5.023 7.896-9.329 7.896-5.509 0-10.316-4.376-10.316-10.509 0-5.975 4.582-10.576 10.328-10.576 4.433 0 7.045 2.853 7.045 2.853l2.738-2.862s-3.514-3.949-9.922-3.949c-8.16 0-14.473 6.953-14.473 14.464 0 7.36 5.938 14.536 14.682 14.536 7.69 0 13.318-5.318 13.318-13.183 0-1.659-.239-2.618-.239-2.618v.001z" fill="url(#a)"/></svg>
