<svg width="60" height="60" viewBox="0 0 60 60" xmlns="http://www.w3.org/2000/svg" xmlns:sketch="http://www.bohemiancoding.com/sketch/ns"><title>leave-google</title><desc>Created with Sketch.</desc><g sketch:type="MSLayerGroup" fill="none"><path d="M30 58.75c15.878 0 28.75-12.872 28.75-28.75s-12.872-28.75-28.75-28.75-28.75 12.872-28.75 28.75 12.872 28.75 28.75 28.75zm0 1.25c-16.569 0-30-13.431-30-30 0-16.569 13.431-30 30-30 16.569 0 30 13.431 30 30 0 16.569-13.431 30-30 30z" fill-opacity=".011" fill="#fff" sketch:type="MSShapeGroup"/><path d="M17.345 45.928c-6.37-.673-11.345-6.002-11.345-12.456 0-3.294 1.287-6.406 3.625-8.761 2.048-2.061 4.701-3.343 7.572-3.677.339-2.829 1.639-5.445 3.732-7.463 2.389-2.305 5.545-3.572 8.888-3.572 3.342 0 6.499 1.267 8.888 3.571 2.084 2.01 3.38 4.611 3.728 7.425 6.475.572 11.568 5.949 11.568 12.477 0 6.452-4.978 11.781-11.345 12.455l-.494-2.966c4.953-.434 8.84-4.536 8.84-9.488 0-4.921-3.853-9.049-8.832-9.489l-2.416-.213-.297-2.407c-.264-2.14-1.25-4.107-2.833-5.634-1.827-1.763-4.237-2.73-6.805-2.73-2.569 0-4.978.968-6.805 2.731-1.591 1.534-2.578 3.512-2.835 5.66l-.282 2.35-2.351.273c-2.202.256-4.225 1.237-5.789 2.811-1.781 1.793-2.754 4.145-2.754 6.647 0 4.955 3.885 9.056 8.84 9.49l-.494 2.966zm13.582-15.928c-.276 0-.922.016-1.694.16-1.823.34-4.343 1.58-5.056 4.163-1.103 3.994 1.737 5.581 1.737 5.581s.995.602 1.405.72c1.234.355 2.548.189 2.548.189s-.524 1.787.526 3.049c.251.301.068.312.068.312s-4.588-.122-6.76 2.254c-2.172 2.376-.995 4.564-.995 4.564s1.138 2.859 6.05 3.004c4.934.145 7.985-2.866 8.252-5.139.134-1.142-.018-2.213-.573-3.149-.54-.91-1.468-1.694-2.375-2.458-.563-.475-.955-.718-1.207-.991-.238-.258-.279-.59-.27-.839.012-.348.19-.775.782-1.482 1.08-1.289 1.354-1.129 2.007-2.094.196-.289.34-.712.541-1.34.121-.379.101-.771.101-1.136 0-.79-.184-1.542-.49-2.176-.569-1.179-1.545-1.944-1.564-2.001h1.712l1.939-1.17-6.54-.019h-.144zm-1.405 1.095c.998.007 2.496.54 3.394 3.316 1.541 4.764-1.686 5.492-1.686 5.492s-3.698.587-4.378-3.65c-.693-4.316.994-4.55 1.654-4.976 0 0 .418-.186 1.016-.182zm2.043 14.036s2.945 1.86 3.221 3.223c.31 1.527.331 2.64-1.917 3.858-.664.36-1.829.402-2.562.405-1.803.008-3.165-.707-3.838-1.066-.35-.186-2.292-2.434-.854-4.445.362-.506.763-.73 1.135-.988.793-.548 1.571-.804 3.038-.936l1.777-.052z" fill="#000" sketch:type="MSShapeGroup"/></g></svg>