<?xml version="1.0" encoding="UTF-8" standalone="no"?>
<svg width="96px" height="96px" viewBox="0 0 96 96" version="1.1" xmlns="http://www.w3.org/2000/svg" xmlns:xlink="http://www.w3.org/1999/xlink" xmlns:sketch="http://www.bohemiancoding.com/sketch/ns">
    <!-- Generator: Sketch 3.3.2 (12043) - http://www.bohemiancoding.com/sketch -->
    <title>leave-google</title>
    <desc>Created with Sketch.</desc>
    <defs>
        <linearGradient x1="50%" y1="0%" x2="50%" y2="100%" id="linearGradient-1">
            <stop stop-color="#176DEF" offset="0%"></stop>
            <stop stop-color="#0A5EDD" offset="100%"></stop>
        </linearGradient>
    </defs>
    <g id="icons" stroke="none" stroke-width="1" fill="none" fill-rule="evenodd" sketch:type="MSPage">
        <g id="leave-google" sketch:type="MSLayerGroup" fill="url(#linearGradient-1)">
            <path d="M58,67 L62.1126693,67 L62.111469,67 C70.8701462,67 78,59.8194828 78,50.9939083 C78,42.6526717 71.6335447,35.7813574 63.5398404,35.0506237 C63.1053274,31.4549298 61.4849061,28.1309965 58.8802289,25.5631613 C55.8938524,22.618485 51.9472263,21 47.7701402,21 C43.5918539,21 39.6464281,22.618485 36.6600516,25.5643692 C34.0445716,28.1430747 32.419349,31.4851254 31.9956389,35.1001444 C28.4079061,35.5265065 25.0914438,37.1655245 22.5311781,39.7985822 C19.6084182,42.8072733 18,46.7834318 18,50.9927006 C18,59.8194828 25.1250525,67 33.8873307,67 L38,67 L38,64 L33.9643749,64 C33.9279172,63.9975405 33.8914594,63.9975405 33.8550017,63.9975405 L33.8148982,64 L33.7116012,64 C26.7019917,64 21,58.2228234 21,51.1212493 C21,44.1807673 26.5683133,38.4060502 33.4126477,38.2461878 C34.3143693,38.2252828 35.0398785,37.4899163 35.0605379,36.5774717 C35.2173062,29.6419085 40.9192979,24 47.7684933,24 C54.6176888,24 60.3172499,29.6394491 60.4752335,36.5750122 C60.4958929,37.5046729 61.2457072,38.2424987 62.1607967,38.2424987 L62.2883988,38.2424987 C69.2980083,38.2424987 75,44.0196754 75,51.1200197 C75,58.2215936 69.2980083,63.9987703 62.2883988,63.9987703 L62.166873,63.9987703 L62.1632272,64 L58,64 L58,67 L58,67 Z M49.2640061,48.0000029 C48.9326387,47.9998759 48.155091,48.0191408 47.228041,48.1919459 C45.0368872,48.6003871 42.0076301,50.091031 41.1504695,53.1958692 C39.8248107,57.997715 43.2384162,59.904965 43.2384162,59.904965 C43.2384162,59.904965 44.4340947,60.6289294 44.9278337,60.7709426 C46.4117079,61.1977485 47.9904455,60.9985966 47.9904455,60.9985966 C47.9904455,60.9985966 47.3609583,63.1462692 48.6228936,64.6633783 C48.9241795,65.0255865 48.7051952,65.0383377 48.7051952,65.0383377 C48.7051952,65.0383377 43.1898074,64.8915968 40.5786627,67.7478658 C37.9675181,70.6041357 39.3830747,73.2338796 39.3830747,73.2338796 C39.3830747,73.2338796 40.7512502,76.6713506 46.6562343,76.8450962 C52.5874585,77.0196141 56.2557573,73.3996142 56.5761487,70.6671928 C56.7371904,69.2937645 56.5550815,68.0071291 55.8873862,66.8818882 C55.2379789,65.7874652 54.1220815,64.8453119 53.0327033,63.9268511 C52.3558108,63.3561567 51.8849834,63.0631615 51.5815373,62.7350159 C51.2948645,62.4250091 51.2465023,62.0257426 51.2566489,61.7261962 C51.2708169,61.3078687 51.4847177,60.7948496 52.1966579,59.9451383 C53.4954705,58.3949908 53.8247551,58.587959 54.609493,57.4275543 C54.8447529,57.0796717 55.0178078,56.5721439 55.2592696,55.8161211 C55.4047386,55.3606515 55.3805515,54.8892185 55.3805607,54.4501979 C55.3805829,53.5010184 55.159381,52.5967852 54.791431,51.8344093 C54.107642,50.4176282 52.9338907,49.4979134 52.9114122,49.4284196 L54.9690364,49.4284196 L57.2995663,48.0223212 L49.4372761,48 C49.4372761,48 49.3744625,48.0000423 49.2640024,48 L49.2640061,48.0000029 Z M47.5745886,49.3168242 C48.7738469,49.3252873 50.5755735,49.9655102 51.6551819,53.3030003 C53.5078208,59.030235 49.6278812,59.904965 49.6278812,59.904965 C49.6278812,59.904965 45.1819553,60.6104541 44.3646949,55.517046 C43.532173,50.328532 45.5597102,50.047861 46.3530098,49.5355508 C46.3530098,49.5355508 46.8550334,49.3117311 47.5745886,49.3168242 L47.5745886,49.3168242 Z M50.0307421,66.1899986 C50.0307421,66.1899986 53.5705153,68.4257789 53.9034075,70.0645793 C54.2763763,71.9006785 54.3014787,73.2379679 51.5988685,74.7024707 C50.8010433,75.1347997 49.4007397,75.1851498 48.5189292,75.1890255 C46.3515329,75.1985464 44.7145027,74.3388574 43.9055195,73.9079142 C43.4850955,73.6839541 41.1500289,70.9819043 42.8788737,68.5647415 C43.3137493,67.9567281 43.7956339,67.6871716 44.2434028,67.3773706 C45.1963218,66.7180722 46.1317091,66.4109659 47.8951443,66.2524922 C48.4816732,66.1997811 49.2632561,66.2441254 50.0307421,66.1900006 L50.0307421,66.1899986 Z" sketch:type="MSShapeGroup"></path>
        </g>
    </g>
</svg>